PathFileType	4	(X/Y/Z)	/Users/itak/Documents/Research/Walk-IL/dataset/trc/00537_00009.trc
DataRate	CameraRate	NumFrames	NumMarkers	Units	OrigDataRate	OrigDataStartFrame	OrigNumFrames
100.000000	100.000000	4	53	mm	100.000000	382	765
Frame#	Time	RPSI			LPSI			L3			STRN			T10			C7			CLAV			RBAK			LBAK			LSHO			LUPA			LAEL			LAOL			LWTS			LWPS			LFRA			LIFD			LHPS			LHTS			RSHO			RUPA			RAEL			RAOL			RWTS			RWPS			RFRA			RIFD			RHTS			RHPS			RBHD			LFHD			RFHD			LBHD			LHIP			RHIP			RASI			LASI			LKNE			LTHI			LANK			LTIP			LTOE			LMT1			LMT5			LHEE			RKNE			RTHI			RANK			RTIP			RTOE			RMT1			RMT5			RHEE			
		X1	Y1	Z1	X2	Y2	Z2	X3	Y3	Z3	X4	Y4	Z4	X5	Y5	Z5	X6	Y6	Z6	X7	Y7	Z7	X8	Y8	Z8	X9	Y9	Z9	X10	Y10	Z10	X11	Y11	Z11	X12	Y12	Z12	X13	Y13	Z13	X14	Y14	Z14	X15	Y15	Z15	X16	Y16	Z16	X17	Y17	Z17	X18	Y18	Z18	X19	Y19	Z19	X20	Y20	Z20	X21	Y21	Z21	X22	Y22	Z22	X23	Y23	Z23	X24	Y24	Z24	X25	Y25	Z25	X26	Y26	Z26	X27	Y27	Z27	X28	Y28	Z28	X29	Y29	Z29	X30	Y30	Z30	X31	Y31	Z31	X32	Y32	Z32	X33	Y33	Z33	X34	Y34	Z34	X35	Y35	Z35	X36	Y36	Z36	X37	Y37	Z37	X38	Y38	Z38	X39	Y39	Z39	X40	Y40	Z40	X41	Y41	Z41	X42	Y42	Z42	X43	Y43	Z43	X44	Y44	Z44	X45	Y45	Z45	X46	Y46	Z46	X47	Y47	Z47	X48	Y48	Z48	X49	Y49	Z49	X50	Y50	Z50	X51	Y51	Z51	X52	Y52	Z52	X53	Y53	Z53	

383	3.82	121.609001159668	1010.832397460938	392.6832885742188	134.9807739257812	1017.015991210938	260.1927185058594	133.8375701904297	1108.621215820312	324.5702514648438	366.058837890625	1295.838623046875	335.1123962402344	124.4369964599609	1233.669921875	321.8250427246094	170.3993225097656	1507.631469726562	336.4209289550781	345.8871459960938	1407.417236328125	334.6695556640625	97.22132110595703	1382.811279296875	421.6247253417969	141.924560546875	1454.222290039062	242.3229217529297	245.5224609375	1479.471923828125	167.6085052490234	247.8791656494141	1355.536376953125	83.84278106689453	286.1959533691406	1137.348266601562	56.69751739501953	195.8230438232422	1118.781372070312	99.43435668945312	411.3487854003906	912.427490234375	106.7638549804688	374.043212890625	882.7933349609375	33.26564407348633	321.0413513183594	1055.626831054688	50.66062545776367	439.5161437988281	744.32568359375	101.4404373168945	392.9545288085938	825.4521484375	41.86443328857422	441.75927734375	839.7442016601562	87.00548553466797	225.4712982177734	1469.5751953125	494.4063415527344	205.2761840820312	1405.066528320312	561.770751953125	197.3337249755859	1115.938354492188	608.1231079101562	143.7923889160156	1097.321533203125	578.7489624023438	339.6180114746094	900.262451171875	577.5184936523438	292.2656860351562	878.9532470703125	641.2955322265625	209.0649719238281	1061.294799804688	616.321044921875	357.0222473144531	728.0830688476562	582.5625	371.0601196289062	810.4259033203125	594.9491577148438	313.1249084472656	805.8552856445312	641.4252319335938	247.6649169921875	1689.682739257812	405.7873229980469	412.8789978027344	1709.193237304688	280.7260131835938	386.290283203125	1706.742797851562	422.6600341796875	285.1524658203125	1690.486206054688	244.7693634033203	280.185546875	943.3756713867188	143.8080596923828	236.8720397949219	938.5336303710938	522.425537109375	325.97216796875	970.783203125	476.0532531738281	347.5275268554688	967.1605834960938	201.0501251220703	336.1019592285156	498.8888854980469	225.4142913818359	323.1908264160156	663.3026733398438	181.3576049804688	254.1324462890625	32.89590072631836	249.4126739501953	278.0499572753906	250.3017425537109	230.7264099121094	459.2346801757812	40.95095443725586	330.9275817871094	382.5399475097656	46.26601028442383	356.6455078125	376.7675476074219	36.31509399414062	247.1446075439453	181.0246887207031	36.77373886108398	295.9374694824219	293.924560546875	496.6116027832031	517.53369140625	284.0892333984375	787.8641967773438	528.652099609375	-83.30624389648438	197.7012329101562	483.52392578125	212.5304870605469	374.1723022460938	503.5794067382812	62.50743103027344	39.1889533996582	443.1677551269531	23.58955574035645	89.72818756103516	402.5223693847656	-5.400399208068848	92.4620361328125	501.6448364257812	-114.1309967041016	241.0972442626953	426.1606140136719	
384	3.83	126.3253479003906	1010.357482910156	392.1516723632812	139.5647583007812	1016.557312011719	259.639404296875	138.1946868896484	1108.489013671875	323.754150390625	370.4601745605469	1295.877075195312	334.3965454101562	128.8649597167969	1233.5478515625	320.8639526367188	174.7855377197266	1507.542724609375	335.2883911132812	350.3098449707031	1407.434448242188	333.9515380859375	101.5342788696289	1382.715698242188	420.4019775390625	146.5309295654297	1454.052001953125	241.1358184814453	250.3326263427734	1479.283813476562	166.6332702636719	253.3765716552734	1355.310424804688	82.99214935302734	293.11474609375	1137.377075195312	55.77644348144531	202.7726287841797	1118.20947265625	98.16696166992188	419.4356994628906	913.1251831054688	105.9359664916992	382.4978332519531	883.3955688476562	32.31786727905273	328.4517517089844	1055.86962890625	49.74610900878906	448.67333984375	745.2259521484375	100.3489303588867	401.82421875	826.1715087890625	40.80951690673828	450.364013671875	840.7015380859375	86.15928649902344	229.5435028076172	1469.604858398438	493.439453125	209.3260803222656	1405.047973632812	560.763427734375	201.9721527099609	1115.86572265625	607.020263671875	148.4752807617188	1097.115478515625	577.6396484375	345.2885131835938	900.8963623046875	576.3976440429688	297.9602966308594	879.2891845703125	640.0684204101562	213.9798278808594	1061.223266601562	615.1318359375	363.5431518554688	728.8472900390625	581.2724609375	377.1746826171875	811.2117309570312	593.739990234375	319.2126159667969	806.313232421875	640.1192626953125	252.1593933105469	1689.703857421875	404.7880859375	417.4674682617188	1709.118896484375	279.9085998535156	390.7641906738281	1706.725341796875	421.8147277832031	289.7696228027344	1690.424194335938	243.85009765625	284.4554748535156	943.3959350585938	142.9355926513672	242.4074859619141	938.7633056640625	521.8217163085938	330.976806640625	971.3997192382812	475.1074523925781	352.1381530761719	967.08251953125	200.0874328613281	338.8605651855469	498.5346374511719	225.2248840332031	326.8385620117188	663.01806640625	181.386962890625	254.1459350585938	32.93650054931641	249.5094451904297	279.1825561523438	250.10546875	230.6847381591797	459.3195190429688	40.89942932128906	330.9658508300781	382.5675964355469	46.2370719909668	356.7335205078125	376.7981872558594	36.29811477661133	247.1537780761719	180.9600677490234	36.83866500854492	295.9643249511719	305.0880126953125	497.5213317871094	517.406005859375	291.0885620117188	788.6192626953125	528.4227905273438	-71.36132049560547	197.7415466308594	483.4276428222656	224.0440673828125	375.1429748535156	503.712646484375	77.88681030273438	41.08557891845703	448.4639892578125	38.4542121887207	89.88176727294922	406.1326293945312	8.30357551574707	94.63450622558594	504.8954772949219	-102.259880065918	239.3558654785156	424.8593139648438	
385	3.84	131.0539245605469	1009.946655273438	391.703857421875	144.1061248779297	1016.135131835938	259.1769714355469	142.5110626220703	1108.373168945312	323.0148010253906	374.8344421386719	1295.929931640625	333.697509765625	133.2591094970703	1233.448852539062	319.97802734375	179.1228179931641	1507.464111328125	334.2154846191406	354.6952209472656	1407.465942382812	333.2671203613281	105.8187561035156	1382.624267578125	419.2293701171875	151.0781707763672	1453.895629882812	240.0079650878906	255.0667114257812	1479.114990234375	165.7042388916016	258.7709045410156	1355.094116210938	82.20993804931641	299.919921875	1137.420288085938	54.94629287719727	209.6095733642578	1117.66943359375	96.99568176269531	427.380859375	913.8331909179688	105.2320022583008	390.81494140625	884.0044555664062	31.49360656738281	335.745361328125	1056.127197265625	48.9378662109375	457.6591491699219	746.1317138671875	99.40755462646484	410.5102844238281	826.8929443359375	39.91196060180664	458.8037109375	841.6580810546875	85.45735168457031	233.5763702392578	1469.650268554688	492.5198669433594	213.3312377929688	1405.051025390625	559.7965087890625	206.4814758300781	1115.826416015625	605.968505859375	153.0320434570312	1096.938842773438	576.5746459960938	350.8454895019531	901.5748291015625	575.3162841796875	303.5522766113281	879.6549682617188	638.8695678710938	218.7673645019531	1061.1787109375	613.9981689453125	369.9825744628906	729.6687622070312	579.9902954101562	383.1754760742188	812.0400390625	592.5774536132812	325.20263671875	806.8071899414062	638.8357543945312	256.6497497558594	1689.744750976562	403.8488464355469	422.0464477539062	1709.03076171875	279.142578125	395.2281188964844	1706.689819335938	421.0201721191406	294.36669921875	1690.3818359375	242.9860992431641	288.6790161132812	943.4043579101562	142.0283203125	247.9018096923828	939.09130859375	521.34326171875	335.9852294921875	972.0458374023438	474.1540832519531	356.6958923339844	966.9959716796875	199.0883331298828	341.5182189941406	498.1863403320312	225.0222320556641	330.3808288574219	662.718994140625	181.4098968505859	254.1621551513672	32.99015808105469	249.6084747314453	280.2504272460938	249.9247436523438	230.6679992675781	459.4041442871094	40.85392761230469	330.9847412109375	382.5851135253906	46.20978927612305	356.8170166015625	376.822021484375	36.28439712524414	247.1654968261719	180.92431640625	36.97409820556641	296.001708984375	315.9141235351562	498.5595703125	517.1767578125	298.0338439941406	789.4256591796875	528.1809692382812	-58.67236709594727	196.5610809326172	483.4060668945312	235.5311737060547	376.0274353027344	503.832763671875	94.58528900146484	42.7490234375	453.6087646484375	54.40238571166992	89.47575378417969	409.7134704589844	23.25253295898438	96.07199096679688	508.1387329101562	-89.87911224365234	236.1865539550781	423.6643371582031	
386	3.85	135.7812194824219	1009.606140136719	391.3370971679688	148.6156768798828	1015.754577636719	258.7994079589844	146.8000335693359	1108.276733398438	322.3514404296875	379.1898498535156	1295.9970703125	333.0135803222656	137.6269836425781	1233.36865234375	319.16748046875	183.4211883544922	1507.39599609375	333.2024536132812	359.0514831542969	1407.513793945312	332.6102905273438	110.0830917358398	1382.53857421875	418.1124877929688	155.5756225585938	1453.754272460938	238.9424896240234	259.7217407226562	1478.97216796875	164.8216247558594	264.0525817871094	1354.89990234375	81.48880767822266	306.599609375	1137.487426757812	54.2066764831543	216.3143615722656	1117.168212890625	95.93303680419922	435.1770629882812	914.5684814453125	104.6591567993164	398.9949035644531	884.6340942382812	30.79661560058594	342.9105834960938	1056.410034179688	48.23882675170898	466.4594421386719	747.0590209960938	98.64154815673828	419.014892578125	827.6297607421875	39.17518997192383	467.0761413574219	842.6265869140625	84.90512847900391	237.5910339355469	1469.710815429688	491.6411437988281	217.3089141845703	1405.07568359375	558.8667602539062	210.8746490478516	1115.819946289062	604.9658813476562	157.49169921875	1096.789794921875	575.5399780273438	356.2782897949219	902.2897338867188	574.2819213867188	309.0324401855469	880.0478515625	637.7025146484375	223.4270172119141	1061.167602539062	612.926025390625	376.3280639648438	730.5381469726562	578.7206420898438	389.0484008789062	812.9034423828125	591.4696044921875	331.0849609375	807.333251953125	637.580322265625	261.1289367675781	1689.802001953125	402.9750061035156	426.6160278320312	1708.934814453125	278.428955078125	399.6825866699219	1706.639038085938	420.2785949707031	298.9478149414062	1690.363891601562	242.1767120361328	292.8527221679688	943.397216796875	141.1090698242188	253.3224945068359	939.5123901367188	520.98779296875	340.9843139648438	972.7095336914062	473.2002258300781	361.1965637207031	966.8984375	198.0739288330078	344.0661315917969	497.8423461914062	224.8042449951172	333.8153686523438	662.4053344726562	181.4065246582031	254.1799774169922	33.05779266357422	249.7066955566406	281.2544250488281	249.7567443847656	230.677001953125	459.4852294921875	40.81457138061523	330.9885864257812	382.6004943847656	46.18595886230469	356.89013671875	376.8388061523438	36.27349472045898	247.1800231933594	180.9185028076172	37.18543243408203	296.0521545410156	326.4258117675781	499.6984558105469	516.840087890625	304.91259765625	790.2669067382812	527.9213256835938	-45.194580078125	194.1713714599609	483.5263671875	247.0233306884766	376.77392578125	503.9216918945312	112.4626846313477	44.06280899047852	458.3793029785156	71.32948303222656	88.53828430175781	413.1306457519531	39.3950309753418	96.71891021728516	511.2547302246094	-76.96101379394531	231.6776123046875	422.7212219238281	
